<?xml version="1.0" ?><svg viewBox="0 0 63 63" xmlns="http://www.w3.org/2000/svg"><defs><style>.cls-1{fill:#428dff;}</style></defs><title/><g data-name="Layer 11" id="Layer_11"><path class="cls-1" d="M45,46.05a.5.5,0,0,1-.5-.5V23.73l-6.73-7.68H24a2.5,2.5,0,0,0-2.5,2.5v7a.5.5,0,0,1-1,0v-7a3.5,3.5,0,0,1,3.5-3.5H38.18l7.27,8.31V45.55A.5.5,0,0,1,45,46.05ZM43,24a.5.5,0,0,0-.5-.5H39.24a.79.79,0,0,1-.79-.79V18.83a.5.5,0,0,0-1,0v3.86a1.79,1.79,0,0,0,1.79,1.79h3.21A.5.5,0,0,0,43,24ZM23.68,35.21v-.67a1.46,1.46,0,0,1,.42-1.08,1.72,1.72,0,0,1,1.24-.41,2,2,0,0,1,.87.17c.24.11.35.24.35.38a.38.38,0,0,1-.1.25.27.27,0,0,1-.23.13,1.75,1.75,0,0,1-.29-.11,1.19,1.19,0,0,0-.54-.12c-.58,0-.88.27-.88.79v.67c0,.53.3.79.89.79a1.2,1.2,0,0,0,.55-.12,1.19,1.19,0,0,1,.29-.12.31.31,0,0,1,.26.12.39.39,0,0,1,.1.26c0,.13-.12.26-.37.38a2,2,0,0,1-.89.18,1.72,1.72,0,0,1-1.25-.4A1.47,1.47,0,0,1,23.68,35.21ZM27,35.08a.36.36,0,0,1-.07-.24A.4.4,0,0,1,27,34.6a.26.26,0,0,1,.2-.1h.93v-.85a.24.24,0,0,1,.1-.19.46.46,0,0,1,.26-.07.41.41,0,0,1,.25.07.28.28,0,0,1,.1.19v.85h.92a.26.26,0,0,1,.19.1.36.36,0,0,1,.09.24.32.32,0,0,1-.09.24.23.23,0,0,1-.19.1h-.92V36a.24.24,0,0,1-.1.18.41.41,0,0,1-.25.07.44.44,0,0,1-.26-.07.21.21,0,0,1-.1-.18v-.86h-.93A.23.23,0,0,1,27,35.08Zm3.47,0a.36.36,0,0,1-.08-.24.41.41,0,0,1,.08-.24.24.24,0,0,1,.19-.1h.93v-.85a.26.26,0,0,1,.11-.19.41.41,0,0,1,.25-.07.39.39,0,0,1,.25.07.24.24,0,0,1,.1.19v.85h.92a.28.28,0,0,1,.2.1.41.41,0,0,1,.08.24.36.36,0,0,1-.08.24.25.25,0,0,1-.2.1h-.92V36a.21.21,0,0,1-.1.18.39.39,0,0,1-.25.07.44.44,0,0,1-.26-.07.21.21,0,0,1-.1-.18v-.86h-.93A.22.22,0,0,1,30.5,35.08Z"/></g></svg>