<svg width="46" height="35" viewBox="0 0 46 35" fill="none" xmlns="http://www.w3.org/2000/svg">
<g clip-path="url(#clip0)">
<path d="M37.9645 9L7 26.978" stroke="#1665FF" stroke-width="7" stroke-linecap="round" stroke-linejoin="round"/>
<g filter="url(#filter0_d)">
<path d="M22.4565 33.5197C24.636 33.5197 26.6775 33.102 28.582 32.2666C30.4865 31.4526 32.1365 30.3281 33.533 28.893C34.951 27.4792 36.061 25.8085 36.865 23.8806C37.669 21.9742 38.071 19.9393 38.071 17.7759C38.071 15.5911 37.669 13.5348 36.865 11.6069C36.061 9.70053 34.951 8.02975 33.533 6.59461C32.1365 5.18089 30.4865 4.05633 28.582 3.22095C26.6775 2.40698 24.636 2 22.4565 2C20.3195 2 18.3095 2.40698 16.426 3.22095C14.564 4.05633 12.935 5.18089 11.5385 6.59461C10.142 8.02975 9.031 9.70053 8.206 11.6069C7.402 13.5348 7 15.5911 7 17.7759C7 19.9393 7.402 21.9742 8.206 23.8806C9.031 25.8085 10.142 27.4792 11.5385 28.893C12.935 30.3281 14.564 31.4526 16.426 32.2666C18.3095 33.102 20.3195 33.5197 22.4565 33.5197ZM22.393 30.5958C20.7425 30.5958 19.346 30.2745 18.2035 29.6319C17.082 28.9893 16.1725 28.0897 15.474 26.933C14.776 25.7763 14.268 24.4054 13.9505 22.8204C13.6545 21.2353 13.5065 19.511 13.5065 17.6474C13.5065 15.8053 13.665 14.1024 13.9825 12.5387C14.2995 10.975 14.8075 9.61483 15.506 8.45818C16.204 7.32288 17.114 6.43396 18.2355 5.79136C19.378 5.14875 20.764 4.82746 22.393 4.82746C24.022 4.82746 25.408 5.14875 26.5505 5.79136C27.6935 6.43396 28.6245 7.32288 29.3435 8.45818C30.0845 9.61483 30.613 10.975 30.9305 12.5387C31.269 14.1024 31.4385 15.8053 31.4385 17.6474C31.4385 19.511 31.269 21.2353 30.9305 22.8204C30.613 24.4054 30.0845 25.7763 29.3435 26.933C28.6245 28.0897 27.6935 28.9893 26.5505 29.6319C25.408 30.2745 24.022 30.5958 22.393 30.5958Z" fill="#1665FF"/>
</g>
</g>
<defs>
<filter id="filter0_d" x="3" y="2" width="39.071" height="39.5197" filterUnits="userSpaceOnUse" color-interpolation-filters="sRGB">
<feFlood flood-opacity="0" result="BackgroundImageFix"/>
<feColorMatrix in="SourceAlpha" type="matrix" values="0 0 0 0 0 0 0 0 0 0 0 0 0 0 0 0 0 0 127 0"/>
<feOffset dy="4"/>
<feGaussianBlur stdDeviation="2"/>
<feColorMatrix type="matrix" values="0 0 0 0 0 0 0 0 0 0 0 0 0 0 0 0 0 0 0.25 0"/>
<feBlend mode="normal" in2="BackgroundImageFix" result="effect1_dropShadow"/>
<feBlend mode="normal" in="SourceGraphic" in2="effect1_dropShadow" result="shape"/>
</filter>
<clipPath id="clip0">
<rect width="46" height="35" fill="white"/>
</clipPath>
</defs>
</svg>
